<mxfile host="Electron" agent="Mozilla/5.0 (Macintosh; Intel Mac OS X 10_15_7) AppleWebKit/537.36 (KHTML, like Gecko) draw.io/26.2.15 Chrome/134.0.6998.205 Electron/35.2.1 Safari/537.36" version="26.2.15">
  <diagram name="Page-1" id="uGTwzxItd89l0KT5xo5V">
    <mxGraphModel dx="976" dy="1852" grid="1" gridSize="10" guides="1" tooltips="1" connect="1" arrows="1" fold="1" page="1" pageScale="1" pageWidth="850" pageHeight="1100" math="0" shadow="0">
      <root>
        <mxCell id="0" />
        <mxCell id="1" parent="0" />
        <mxCell id="vyj9jpibA56fX9_31Tpw-134" value="&lt;font style=&quot;font-size: 20px;&quot;&gt;order_items&lt;/font&gt;" style="shape=table;startSize=30;container=1;collapsible=1;childLayout=tableLayout;fixedRows=1;rowLines=0;fontStyle=1;align=center;resizeLast=1;html=1;fillColor=#a0522d;fontColor=#ffffff;strokeColor=#6D1F00;" parent="1" vertex="1">
          <mxGeometry x="335" y="-890" width="180" height="360" as="geometry" />
        </mxCell>
        <mxCell id="vyj9jpibA56fX9_31Tpw-135" value="" style="shape=tableRow;horizontal=0;startSize=0;swimlaneHead=0;swimlaneBody=0;fillColor=#a0522d;collapsible=0;dropTarget=0;points=[[0,0.5],[1,0.5]];portConstraint=eastwest;top=0;left=0;right=0;bottom=1;fontSize=15;fontColor=#ffffff;strokeColor=#401200;opacity=30;" parent="vyj9jpibA56fX9_31Tpw-134" vertex="1">
          <mxGeometry y="30" width="180" height="30" as="geometry" />
        </mxCell>
        <mxCell id="vyj9jpibA56fX9_31Tpw-136" value="PK" style="shape=partialRectangle;connectable=0;fillColor=#a0522d;top=0;left=0;bottom=0;right=0;fontStyle=1;overflow=hidden;whiteSpace=wrap;html=1;fontSize=15;fontColor=#ffffff;strokeColor=#401200;opacity=30;" parent="vyj9jpibA56fX9_31Tpw-135" vertex="1">
          <mxGeometry width="30" height="30" as="geometry">
            <mxRectangle width="30" height="30" as="alternateBounds" />
          </mxGeometry>
        </mxCell>
        <mxCell id="vyj9jpibA56fX9_31Tpw-137" value="id" style="shape=partialRectangle;connectable=0;fillColor=#a0522d;top=0;left=0;bottom=0;right=0;align=left;spacingLeft=6;fontStyle=5;overflow=hidden;whiteSpace=wrap;html=1;fontSize=15;fontColor=#ffffff;strokeColor=#401200;opacity=30;" parent="vyj9jpibA56fX9_31Tpw-135" vertex="1">
          <mxGeometry x="30" width="150" height="30" as="geometry">
            <mxRectangle width="150" height="30" as="alternateBounds" />
          </mxGeometry>
        </mxCell>
        <mxCell id="vyj9jpibA56fX9_31Tpw-152" value="" style="shape=tableRow;horizontal=0;startSize=0;swimlaneHead=0;swimlaneBody=0;fillColor=#a0522d;collapsible=0;dropTarget=0;points=[[0,0.5],[1,0.5]];portConstraint=eastwest;top=0;left=0;right=0;bottom=1;fontSize=15;swimlaneLine=0;strokeColor=#401200;fontColor=#ffffff;opacity=30;" parent="vyj9jpibA56fX9_31Tpw-134" vertex="1">
          <mxGeometry y="60" width="180" height="30" as="geometry" />
        </mxCell>
        <mxCell id="vyj9jpibA56fX9_31Tpw-153" value="FK" style="shape=partialRectangle;connectable=0;fillColor=#a0522d;top=0;left=0;bottom=0;right=0;fontStyle=1;overflow=hidden;whiteSpace=wrap;html=1;fontSize=15;swimlaneLine=0;strokeColor=#401200;fontColor=#ffffff;opacity=30;" parent="vyj9jpibA56fX9_31Tpw-152" vertex="1">
          <mxGeometry width="30" height="30" as="geometry">
            <mxRectangle width="30" height="30" as="alternateBounds" />
          </mxGeometry>
        </mxCell>
        <mxCell id="vyj9jpibA56fX9_31Tpw-154" value="product_id" style="shape=partialRectangle;connectable=0;fillColor=#a0522d;top=0;left=0;bottom=0;right=0;align=left;spacingLeft=6;fontStyle=5;overflow=hidden;whiteSpace=wrap;html=1;fontSize=15;swimlaneLine=0;strokeColor=#401200;fontColor=#ffffff;opacity=30;" parent="vyj9jpibA56fX9_31Tpw-152" vertex="1">
          <mxGeometry x="30" width="150" height="30" as="geometry">
            <mxRectangle width="150" height="30" as="alternateBounds" />
          </mxGeometry>
        </mxCell>
        <mxCell id="vyj9jpibA56fX9_31Tpw-178" value="" style="shape=tableRow;horizontal=0;startSize=0;swimlaneHead=0;swimlaneBody=0;fillColor=#a0522d;collapsible=0;dropTarget=0;points=[[0,0.5],[1,0.5]];portConstraint=eastwest;top=0;left=0;right=0;bottom=1;fontSize=15;swimlaneLine=0;strokeColor=#401200;fontColor=#ffffff;opacity=30;" parent="vyj9jpibA56fX9_31Tpw-134" vertex="1">
          <mxGeometry y="90" width="180" height="30" as="geometry" />
        </mxCell>
        <mxCell id="vyj9jpibA56fX9_31Tpw-179" value="FK" style="shape=partialRectangle;connectable=0;fillColor=#a0522d;top=0;left=0;bottom=0;right=0;fontStyle=1;overflow=hidden;whiteSpace=wrap;html=1;fontSize=15;swimlaneLine=0;strokeColor=#401200;fontColor=#ffffff;opacity=30;" parent="vyj9jpibA56fX9_31Tpw-178" vertex="1">
          <mxGeometry width="30" height="30" as="geometry">
            <mxRectangle width="30" height="30" as="alternateBounds" />
          </mxGeometry>
        </mxCell>
        <mxCell id="vyj9jpibA56fX9_31Tpw-180" value="user_id" style="shape=partialRectangle;connectable=0;fillColor=#a0522d;top=0;left=0;bottom=0;right=0;align=left;spacingLeft=6;fontStyle=5;overflow=hidden;whiteSpace=wrap;html=1;fontSize=15;swimlaneLine=0;strokeColor=#401200;fontColor=#ffffff;opacity=30;" parent="vyj9jpibA56fX9_31Tpw-178" vertex="1">
          <mxGeometry x="30" width="150" height="30" as="geometry">
            <mxRectangle width="150" height="30" as="alternateBounds" />
          </mxGeometry>
        </mxCell>
        <mxCell id="vyj9jpibA56fX9_31Tpw-181" value="" style="shape=tableRow;horizontal=0;startSize=0;swimlaneHead=0;swimlaneBody=0;fillColor=#a0522d;collapsible=0;dropTarget=0;points=[[0,0.5],[1,0.5]];portConstraint=eastwest;top=0;left=0;right=0;bottom=1;fontSize=15;swimlaneLine=0;strokeColor=#401200;fontColor=#ffffff;opacity=30;" parent="vyj9jpibA56fX9_31Tpw-134" vertex="1">
          <mxGeometry y="120" width="180" height="30" as="geometry" />
        </mxCell>
        <mxCell id="vyj9jpibA56fX9_31Tpw-182" value="FK" style="shape=partialRectangle;connectable=0;fillColor=#a0522d;top=0;left=0;bottom=0;right=0;fontStyle=1;overflow=hidden;whiteSpace=wrap;html=1;fontSize=15;swimlaneLine=0;strokeColor=#401200;fontColor=#ffffff;opacity=30;" parent="vyj9jpibA56fX9_31Tpw-181" vertex="1">
          <mxGeometry width="30" height="30" as="geometry">
            <mxRectangle width="30" height="30" as="alternateBounds" />
          </mxGeometry>
        </mxCell>
        <mxCell id="vyj9jpibA56fX9_31Tpw-183" value="order_id" style="shape=partialRectangle;connectable=0;fillColor=#a0522d;top=0;left=0;bottom=0;right=0;align=left;spacingLeft=6;fontStyle=5;overflow=hidden;whiteSpace=wrap;html=1;fontSize=15;swimlaneLine=0;strokeColor=#401200;fontColor=#ffffff;opacity=30;" parent="vyj9jpibA56fX9_31Tpw-181" vertex="1">
          <mxGeometry x="30" width="150" height="30" as="geometry">
            <mxRectangle width="150" height="30" as="alternateBounds" />
          </mxGeometry>
        </mxCell>
        <mxCell id="vyj9jpibA56fX9_31Tpw-184" value="" style="shape=tableRow;horizontal=0;startSize=0;swimlaneHead=0;swimlaneBody=0;fillColor=#a0522d;collapsible=0;dropTarget=0;points=[[0,0.5],[1,0.5]];portConstraint=eastwest;top=0;left=0;right=0;bottom=1;fontSize=15;swimlaneLine=0;strokeColor=#6D1F00;fontColor=#ffffff;opacity=30;" parent="vyj9jpibA56fX9_31Tpw-134" vertex="1">
          <mxGeometry y="150" width="180" height="30" as="geometry" />
        </mxCell>
        <mxCell id="vyj9jpibA56fX9_31Tpw-185" value="FK" style="shape=partialRectangle;connectable=0;fillColor=#a0522d;top=0;left=0;bottom=0;right=0;fontStyle=1;overflow=hidden;whiteSpace=wrap;html=1;fontSize=15;swimlaneLine=0;strokeColor=#6D1F00;fontColor=#ffffff;opacity=30;" parent="vyj9jpibA56fX9_31Tpw-184" vertex="1">
          <mxGeometry width="30" height="30" as="geometry">
            <mxRectangle width="30" height="30" as="alternateBounds" />
          </mxGeometry>
        </mxCell>
        <mxCell id="vyj9jpibA56fX9_31Tpw-186" value="inventory_item_id" style="shape=partialRectangle;connectable=0;fillColor=#a0522d;top=0;left=0;bottom=0;right=0;align=left;spacingLeft=6;fontStyle=5;overflow=hidden;whiteSpace=wrap;html=1;fontSize=15;swimlaneLine=0;strokeColor=#6D1F00;fontColor=#ffffff;opacity=30;" parent="vyj9jpibA56fX9_31Tpw-184" vertex="1">
          <mxGeometry x="30" width="150" height="30" as="geometry">
            <mxRectangle width="150" height="30" as="alternateBounds" />
          </mxGeometry>
        </mxCell>
        <mxCell id="vyj9jpibA56fX9_31Tpw-138" value="" style="shape=tableRow;horizontal=0;startSize=0;swimlaneHead=0;swimlaneBody=0;fillColor=#a0522d;collapsible=0;dropTarget=0;points=[[0,0.5],[1,0.5]];portConstraint=eastwest;top=0;left=0;right=0;bottom=0;fontSize=15;strokeColor=#6D1F00;fontColor=#ffffff;opacity=30;" parent="vyj9jpibA56fX9_31Tpw-134" vertex="1">
          <mxGeometry y="180" width="180" height="30" as="geometry" />
        </mxCell>
        <mxCell id="vyj9jpibA56fX9_31Tpw-139" value="" style="shape=partialRectangle;connectable=0;fillColor=#a0522d;top=0;left=0;bottom=0;right=0;editable=1;overflow=hidden;whiteSpace=wrap;html=1;fontSize=15;strokeColor=#6D1F00;fontColor=#ffffff;opacity=30;" parent="vyj9jpibA56fX9_31Tpw-138" vertex="1">
          <mxGeometry width="30" height="30" as="geometry">
            <mxRectangle width="30" height="30" as="alternateBounds" />
          </mxGeometry>
        </mxCell>
        <mxCell id="vyj9jpibA56fX9_31Tpw-140" value="status" style="shape=partialRectangle;connectable=0;fillColor=#a0522d;top=0;left=0;bottom=0;right=0;align=left;spacingLeft=6;overflow=hidden;whiteSpace=wrap;html=1;fontSize=15;strokeColor=#6D1F00;fontColor=#ffffff;opacity=30;" parent="vyj9jpibA56fX9_31Tpw-138" vertex="1">
          <mxGeometry x="30" width="150" height="30" as="geometry">
            <mxRectangle width="150" height="30" as="alternateBounds" />
          </mxGeometry>
        </mxCell>
        <mxCell id="vyj9jpibA56fX9_31Tpw-141" value="" style="shape=tableRow;horizontal=0;startSize=0;swimlaneHead=0;swimlaneBody=0;fillColor=#a0522d;collapsible=0;dropTarget=0;points=[[0,0.5],[1,0.5]];portConstraint=eastwest;top=0;left=0;right=0;bottom=0;fontSize=15;strokeColor=#6D1F00;fontColor=#ffffff;opacity=30;" parent="vyj9jpibA56fX9_31Tpw-134" vertex="1">
          <mxGeometry y="210" width="180" height="30" as="geometry" />
        </mxCell>
        <mxCell id="vyj9jpibA56fX9_31Tpw-142" value="" style="shape=partialRectangle;connectable=0;fillColor=#a0522d;top=0;left=0;bottom=0;right=0;editable=1;overflow=hidden;whiteSpace=wrap;html=1;fontSize=15;strokeColor=#6D1F00;fontColor=#ffffff;opacity=30;" parent="vyj9jpibA56fX9_31Tpw-141" vertex="1">
          <mxGeometry width="30" height="30" as="geometry">
            <mxRectangle width="30" height="30" as="alternateBounds" />
          </mxGeometry>
        </mxCell>
        <mxCell id="vyj9jpibA56fX9_31Tpw-143" value="created_at" style="shape=partialRectangle;connectable=0;fillColor=#a0522d;top=0;left=0;bottom=0;right=0;align=left;spacingLeft=6;overflow=hidden;whiteSpace=wrap;html=1;fontSize=15;strokeColor=#6D1F00;fontColor=#ffffff;opacity=30;" parent="vyj9jpibA56fX9_31Tpw-141" vertex="1">
          <mxGeometry x="30" width="150" height="30" as="geometry">
            <mxRectangle width="150" height="30" as="alternateBounds" />
          </mxGeometry>
        </mxCell>
        <mxCell id="vyj9jpibA56fX9_31Tpw-144" value="" style="shape=tableRow;horizontal=0;startSize=0;swimlaneHead=0;swimlaneBody=0;fillColor=#a0522d;collapsible=0;dropTarget=0;points=[[0,0.5],[1,0.5]];portConstraint=eastwest;top=0;left=0;right=0;bottom=0;fontSize=15;fontColor=#ffffff;strokeColor=#6D1F00;opacity=30;" parent="vyj9jpibA56fX9_31Tpw-134" vertex="1">
          <mxGeometry y="240" width="180" height="30" as="geometry" />
        </mxCell>
        <mxCell id="vyj9jpibA56fX9_31Tpw-145" value="" style="shape=partialRectangle;connectable=0;fillColor=#a0522d;top=0;left=0;bottom=0;right=0;editable=1;overflow=hidden;whiteSpace=wrap;html=1;fontSize=15;fontColor=#ffffff;strokeColor=#6D1F00;opacity=30;" parent="vyj9jpibA56fX9_31Tpw-144" vertex="1">
          <mxGeometry width="30" height="30" as="geometry">
            <mxRectangle width="30" height="30" as="alternateBounds" />
          </mxGeometry>
        </mxCell>
        <mxCell id="vyj9jpibA56fX9_31Tpw-146" value="shipped_at" style="shape=partialRectangle;connectable=0;fillColor=#a0522d;top=0;left=0;bottom=0;right=0;align=left;spacingLeft=6;overflow=hidden;whiteSpace=wrap;html=1;fontSize=15;fontColor=#ffffff;strokeColor=#6D1F00;opacity=30;" parent="vyj9jpibA56fX9_31Tpw-144" vertex="1">
          <mxGeometry x="30" width="150" height="30" as="geometry">
            <mxRectangle width="150" height="30" as="alternateBounds" />
          </mxGeometry>
        </mxCell>
        <mxCell id="vyj9jpibA56fX9_31Tpw-147" value="" style="shape=tableRow;horizontal=0;startSize=0;swimlaneHead=0;swimlaneBody=0;fillColor=#a0522d;collapsible=0;dropTarget=0;points=[[0,0.5],[1,0.5]];portConstraint=eastwest;top=0;left=0;right=0;bottom=0;fontSize=15;fontColor=#ffffff;strokeColor=#6D1F00;opacity=30;" parent="vyj9jpibA56fX9_31Tpw-134" vertex="1">
          <mxGeometry y="270" width="180" height="30" as="geometry" />
        </mxCell>
        <mxCell id="vyj9jpibA56fX9_31Tpw-148" value="" style="shape=partialRectangle;connectable=0;fillColor=#a0522d;top=0;left=0;bottom=0;right=0;editable=1;overflow=hidden;whiteSpace=wrap;html=1;fontSize=15;fontColor=#ffffff;strokeColor=#6D1F00;opacity=30;" parent="vyj9jpibA56fX9_31Tpw-147" vertex="1">
          <mxGeometry width="30" height="30" as="geometry">
            <mxRectangle width="30" height="30" as="alternateBounds" />
          </mxGeometry>
        </mxCell>
        <mxCell id="vyj9jpibA56fX9_31Tpw-149" value="delivered_at" style="shape=partialRectangle;connectable=0;fillColor=#a0522d;top=0;left=0;bottom=0;right=0;align=left;spacingLeft=6;overflow=hidden;whiteSpace=wrap;html=1;fontSize=15;fontColor=#ffffff;strokeColor=#6D1F00;opacity=30;" parent="vyj9jpibA56fX9_31Tpw-147" vertex="1">
          <mxGeometry x="30" width="150" height="30" as="geometry">
            <mxRectangle width="150" height="30" as="alternateBounds" />
          </mxGeometry>
        </mxCell>
        <mxCell id="vyj9jpibA56fX9_31Tpw-187" value="" style="shape=tableRow;horizontal=0;startSize=0;swimlaneHead=0;swimlaneBody=0;fillColor=#a0522d;collapsible=0;dropTarget=0;points=[[0,0.5],[1,0.5]];portConstraint=eastwest;top=0;left=0;right=0;bottom=0;fontSize=15;fontColor=#ffffff;strokeColor=#6D1F00;opacity=30;" parent="vyj9jpibA56fX9_31Tpw-134" vertex="1">
          <mxGeometry y="300" width="180" height="30" as="geometry" />
        </mxCell>
        <mxCell id="vyj9jpibA56fX9_31Tpw-188" value="" style="shape=partialRectangle;connectable=0;fillColor=#a0522d;top=0;left=0;bottom=0;right=0;editable=1;overflow=hidden;whiteSpace=wrap;html=1;fontSize=15;fontColor=#ffffff;strokeColor=#6D1F00;opacity=30;" parent="vyj9jpibA56fX9_31Tpw-187" vertex="1">
          <mxGeometry width="30" height="30" as="geometry">
            <mxRectangle width="30" height="30" as="alternateBounds" />
          </mxGeometry>
        </mxCell>
        <mxCell id="vyj9jpibA56fX9_31Tpw-189" value="returned_at" style="shape=partialRectangle;connectable=0;fillColor=#a0522d;top=0;left=0;bottom=0;right=0;align=left;spacingLeft=6;overflow=hidden;whiteSpace=wrap;html=1;fontSize=15;fontColor=#ffffff;strokeColor=#6D1F00;opacity=30;" parent="vyj9jpibA56fX9_31Tpw-187" vertex="1">
          <mxGeometry x="30" width="150" height="30" as="geometry">
            <mxRectangle width="150" height="30" as="alternateBounds" />
          </mxGeometry>
        </mxCell>
        <mxCell id="vyj9jpibA56fX9_31Tpw-190" value="" style="shape=tableRow;horizontal=0;startSize=0;swimlaneHead=0;swimlaneBody=0;fillColor=#a0522d;collapsible=0;dropTarget=0;points=[[0,0.5],[1,0.5]];portConstraint=eastwest;top=0;left=0;right=0;bottom=0;fontSize=15;fontColor=#ffffff;strokeColor=#6D1F00;opacity=30;" parent="vyj9jpibA56fX9_31Tpw-134" vertex="1">
          <mxGeometry y="330" width="180" height="30" as="geometry" />
        </mxCell>
        <mxCell id="vyj9jpibA56fX9_31Tpw-191" value="" style="shape=partialRectangle;connectable=0;fillColor=#a0522d;top=0;left=0;bottom=0;right=0;editable=1;overflow=hidden;whiteSpace=wrap;html=1;fontSize=15;fontColor=#ffffff;strokeColor=#6D1F00;opacity=30;" parent="vyj9jpibA56fX9_31Tpw-190" vertex="1">
          <mxGeometry width="30" height="30" as="geometry">
            <mxRectangle width="30" height="30" as="alternateBounds" />
          </mxGeometry>
        </mxCell>
        <mxCell id="vyj9jpibA56fX9_31Tpw-192" value="sales_price" style="shape=partialRectangle;connectable=0;fillColor=#a0522d;top=0;left=0;bottom=0;right=0;align=left;spacingLeft=6;overflow=hidden;whiteSpace=wrap;html=1;fontSize=15;fontColor=#ffffff;strokeColor=#6D1F00;opacity=30;" parent="vyj9jpibA56fX9_31Tpw-190" vertex="1">
          <mxGeometry x="30" width="150" height="30" as="geometry">
            <mxRectangle width="150" height="30" as="alternateBounds" />
          </mxGeometry>
        </mxCell>
        <mxCell id="vyj9jpibA56fX9_31Tpw-150" value="Used Data Diagram" style="text;html=1;align=center;verticalAlign=middle;whiteSpace=wrap;rounded=0;fontSize=23;fillColor=#a0522d;fontColor=#ffffff;strokeColor=#6D1F00;" parent="1" vertex="1">
          <mxGeometry x="290" y="-1000" width="270" height="32" as="geometry" />
        </mxCell>
        <mxCell id="vyj9jpibA56fX9_31Tpw-196" value="&lt;font style=&quot;font-size: 20px;&quot;&gt;users&lt;/font&gt;" style="shape=table;startSize=30;container=1;collapsible=1;childLayout=tableLayout;fixedRows=1;rowLines=0;fontStyle=1;align=center;resizeLast=1;html=1;fillColor=#a0522d;fontColor=#ffffff;strokeColor=#6D1F00;" parent="1" vertex="1">
          <mxGeometry x="50" y="-890" width="180" height="450" as="geometry" />
        </mxCell>
        <mxCell id="vyj9jpibA56fX9_31Tpw-197" value="" style="shape=tableRow;horizontal=0;startSize=0;swimlaneHead=0;swimlaneBody=0;fillColor=#a0522d;collapsible=0;dropTarget=0;points=[[0,0.5],[1,0.5]];portConstraint=eastwest;top=0;left=0;right=0;bottom=1;fontSize=15;fontColor=#ffffff;strokeColor=#6D1F00;opacity=30;" parent="vyj9jpibA56fX9_31Tpw-196" vertex="1">
          <mxGeometry y="30" width="180" height="30" as="geometry" />
        </mxCell>
        <mxCell id="vyj9jpibA56fX9_31Tpw-198" value="PK" style="shape=partialRectangle;connectable=0;fillColor=#a0522d;top=0;left=0;bottom=0;right=0;fontStyle=1;overflow=hidden;whiteSpace=wrap;html=1;fontSize=15;fontColor=#ffffff;strokeColor=#6D1F00;opacity=30;" parent="vyj9jpibA56fX9_31Tpw-197" vertex="1">
          <mxGeometry width="30" height="30" as="geometry">
            <mxRectangle width="30" height="30" as="alternateBounds" />
          </mxGeometry>
        </mxCell>
        <mxCell id="vyj9jpibA56fX9_31Tpw-199" value="id" style="shape=partialRectangle;connectable=0;fillColor=#a0522d;top=0;left=0;bottom=0;right=0;align=left;spacingLeft=6;fontStyle=5;overflow=hidden;whiteSpace=wrap;html=1;fontSize=15;fontColor=#ffffff;strokeColor=#6D1F00;opacity=30;" parent="vyj9jpibA56fX9_31Tpw-197" vertex="1">
          <mxGeometry x="30" width="150" height="30" as="geometry">
            <mxRectangle width="150" height="30" as="alternateBounds" />
          </mxGeometry>
        </mxCell>
        <mxCell id="vyj9jpibA56fX9_31Tpw-200" value="" style="shape=tableRow;horizontal=0;startSize=0;swimlaneHead=0;swimlaneBody=0;fillColor=#a0522d;collapsible=0;dropTarget=0;points=[[0,0.5],[1,0.5]];portConstraint=eastwest;top=0;left=0;right=0;bottom=0;fontSize=15;fontColor=#ffffff;strokeColor=#6D1F00;opacity=30;" parent="vyj9jpibA56fX9_31Tpw-196" vertex="1">
          <mxGeometry y="60" width="180" height="30" as="geometry" />
        </mxCell>
        <mxCell id="vyj9jpibA56fX9_31Tpw-201" value="" style="shape=partialRectangle;connectable=0;fillColor=#a0522d;top=0;left=0;bottom=0;right=0;editable=1;overflow=hidden;whiteSpace=wrap;html=1;fontSize=15;fontColor=#ffffff;strokeColor=#6D1F00;opacity=30;" parent="vyj9jpibA56fX9_31Tpw-200" vertex="1">
          <mxGeometry width="30" height="30" as="geometry">
            <mxRectangle width="30" height="30" as="alternateBounds" />
          </mxGeometry>
        </mxCell>
        <mxCell id="vyj9jpibA56fX9_31Tpw-202" value="first_name" style="shape=partialRectangle;connectable=0;fillColor=#a0522d;top=0;left=0;bottom=0;right=0;align=left;spacingLeft=6;overflow=hidden;whiteSpace=wrap;html=1;fontSize=15;fontColor=#ffffff;strokeColor=#6D1F00;opacity=30;" parent="vyj9jpibA56fX9_31Tpw-200" vertex="1">
          <mxGeometry x="30" width="150" height="30" as="geometry">
            <mxRectangle width="150" height="30" as="alternateBounds" />
          </mxGeometry>
        </mxCell>
        <mxCell id="vyj9jpibA56fX9_31Tpw-203" value="" style="shape=tableRow;horizontal=0;startSize=0;swimlaneHead=0;swimlaneBody=0;fillColor=#a0522d;collapsible=0;dropTarget=0;points=[[0,0.5],[1,0.5]];portConstraint=eastwest;top=0;left=0;right=0;bottom=0;fontSize=15;fontColor=#ffffff;strokeColor=#6D1F00;opacity=30;" parent="vyj9jpibA56fX9_31Tpw-196" vertex="1">
          <mxGeometry y="90" width="180" height="30" as="geometry" />
        </mxCell>
        <mxCell id="vyj9jpibA56fX9_31Tpw-204" value="" style="shape=partialRectangle;connectable=0;fillColor=#a0522d;top=0;left=0;bottom=0;right=0;editable=1;overflow=hidden;whiteSpace=wrap;html=1;fontSize=15;fontColor=#ffffff;strokeColor=#6D1F00;opacity=30;" parent="vyj9jpibA56fX9_31Tpw-203" vertex="1">
          <mxGeometry width="30" height="30" as="geometry">
            <mxRectangle width="30" height="30" as="alternateBounds" />
          </mxGeometry>
        </mxCell>
        <mxCell id="vyj9jpibA56fX9_31Tpw-205" value="last_name" style="shape=partialRectangle;connectable=0;fillColor=#a0522d;top=0;left=0;bottom=0;right=0;align=left;spacingLeft=6;overflow=hidden;whiteSpace=wrap;html=1;fontSize=15;fontColor=#ffffff;strokeColor=#6D1F00;opacity=30;" parent="vyj9jpibA56fX9_31Tpw-203" vertex="1">
          <mxGeometry x="30" width="150" height="30" as="geometry">
            <mxRectangle width="150" height="30" as="alternateBounds" />
          </mxGeometry>
        </mxCell>
        <mxCell id="vyj9jpibA56fX9_31Tpw-206" value="" style="shape=tableRow;horizontal=0;startSize=0;swimlaneHead=0;swimlaneBody=0;fillColor=#a0522d;collapsible=0;dropTarget=0;points=[[0,0.5],[1,0.5]];portConstraint=eastwest;top=0;left=0;right=0;bottom=0;fontSize=15;fontColor=#ffffff;strokeColor=#6D1F00;opacity=30;" parent="vyj9jpibA56fX9_31Tpw-196" vertex="1">
          <mxGeometry y="120" width="180" height="30" as="geometry" />
        </mxCell>
        <mxCell id="vyj9jpibA56fX9_31Tpw-207" value="" style="shape=partialRectangle;connectable=0;fillColor=#a0522d;top=0;left=0;bottom=0;right=0;editable=1;overflow=hidden;whiteSpace=wrap;html=1;fontSize=15;fontColor=#ffffff;strokeColor=#6D1F00;opacity=30;" parent="vyj9jpibA56fX9_31Tpw-206" vertex="1">
          <mxGeometry width="30" height="30" as="geometry">
            <mxRectangle width="30" height="30" as="alternateBounds" />
          </mxGeometry>
        </mxCell>
        <mxCell id="vyj9jpibA56fX9_31Tpw-208" value="email" style="shape=partialRectangle;connectable=0;fillColor=#a0522d;top=0;left=0;bottom=0;right=0;align=left;spacingLeft=6;overflow=hidden;whiteSpace=wrap;html=1;fontSize=15;fontColor=#ffffff;strokeColor=#6D1F00;opacity=30;" parent="vyj9jpibA56fX9_31Tpw-206" vertex="1">
          <mxGeometry x="30" width="150" height="30" as="geometry">
            <mxRectangle width="150" height="30" as="alternateBounds" />
          </mxGeometry>
        </mxCell>
        <mxCell id="vyj9jpibA56fX9_31Tpw-237" value="" style="shape=tableRow;horizontal=0;startSize=0;swimlaneHead=0;swimlaneBody=0;fillColor=#a0522d;collapsible=0;dropTarget=0;points=[[0,0.5],[1,0.5]];portConstraint=eastwest;top=0;left=0;right=0;bottom=0;fontSize=15;fontColor=#ffffff;strokeColor=#6D1F00;opacity=30;" parent="vyj9jpibA56fX9_31Tpw-196" vertex="1">
          <mxGeometry y="150" width="180" height="30" as="geometry" />
        </mxCell>
        <mxCell id="vyj9jpibA56fX9_31Tpw-238" value="" style="shape=partialRectangle;connectable=0;fillColor=#a0522d;top=0;left=0;bottom=0;right=0;editable=1;overflow=hidden;whiteSpace=wrap;html=1;fontSize=15;fontColor=#ffffff;strokeColor=#6D1F00;opacity=30;" parent="vyj9jpibA56fX9_31Tpw-237" vertex="1">
          <mxGeometry width="30" height="30" as="geometry">
            <mxRectangle width="30" height="30" as="alternateBounds" />
          </mxGeometry>
        </mxCell>
        <mxCell id="vyj9jpibA56fX9_31Tpw-239" value="age" style="shape=partialRectangle;connectable=0;fillColor=#a0522d;top=0;left=0;bottom=0;right=0;align=left;spacingLeft=6;overflow=hidden;whiteSpace=wrap;html=1;fontSize=15;fontColor=#ffffff;strokeColor=#6D1F00;opacity=30;" parent="vyj9jpibA56fX9_31Tpw-237" vertex="1">
          <mxGeometry x="30" width="150" height="30" as="geometry">
            <mxRectangle width="150" height="30" as="alternateBounds" />
          </mxGeometry>
        </mxCell>
        <mxCell id="vyj9jpibA56fX9_31Tpw-240" value="" style="shape=tableRow;horizontal=0;startSize=0;swimlaneHead=0;swimlaneBody=0;fillColor=#a0522d;collapsible=0;dropTarget=0;points=[[0,0.5],[1,0.5]];portConstraint=eastwest;top=0;left=0;right=0;bottom=0;fontSize=15;fontColor=#ffffff;strokeColor=#6D1F00;opacity=30;" parent="vyj9jpibA56fX9_31Tpw-196" vertex="1">
          <mxGeometry y="180" width="180" height="30" as="geometry" />
        </mxCell>
        <mxCell id="vyj9jpibA56fX9_31Tpw-241" value="" style="shape=partialRectangle;connectable=0;fillColor=#a0522d;top=0;left=0;bottom=0;right=0;editable=1;overflow=hidden;whiteSpace=wrap;html=1;fontSize=15;fontColor=#ffffff;strokeColor=#6D1F00;opacity=30;" parent="vyj9jpibA56fX9_31Tpw-240" vertex="1">
          <mxGeometry width="30" height="30" as="geometry">
            <mxRectangle width="30" height="30" as="alternateBounds" />
          </mxGeometry>
        </mxCell>
        <mxCell id="vyj9jpibA56fX9_31Tpw-242" value="gender" style="shape=partialRectangle;connectable=0;fillColor=#a0522d;top=0;left=0;bottom=0;right=0;align=left;spacingLeft=6;overflow=hidden;whiteSpace=wrap;html=1;fontSize=15;fontColor=#ffffff;strokeColor=#6D1F00;opacity=30;" parent="vyj9jpibA56fX9_31Tpw-240" vertex="1">
          <mxGeometry x="30" width="150" height="30" as="geometry">
            <mxRectangle width="150" height="30" as="alternateBounds" />
          </mxGeometry>
        </mxCell>
        <mxCell id="vyj9jpibA56fX9_31Tpw-243" value="" style="shape=tableRow;horizontal=0;startSize=0;swimlaneHead=0;swimlaneBody=0;fillColor=#a0522d;collapsible=0;dropTarget=0;points=[[0,0.5],[1,0.5]];portConstraint=eastwest;top=0;left=0;right=0;bottom=0;fontSize=15;fontColor=#ffffff;strokeColor=#6D1F00;opacity=30;" parent="vyj9jpibA56fX9_31Tpw-196" vertex="1">
          <mxGeometry y="210" width="180" height="30" as="geometry" />
        </mxCell>
        <mxCell id="vyj9jpibA56fX9_31Tpw-244" value="" style="shape=partialRectangle;connectable=0;fillColor=#a0522d;top=0;left=0;bottom=0;right=0;editable=1;overflow=hidden;whiteSpace=wrap;html=1;fontSize=15;fontColor=#ffffff;strokeColor=#6D1F00;opacity=30;" parent="vyj9jpibA56fX9_31Tpw-243" vertex="1">
          <mxGeometry width="30" height="30" as="geometry">
            <mxRectangle width="30" height="30" as="alternateBounds" />
          </mxGeometry>
        </mxCell>
        <mxCell id="vyj9jpibA56fX9_31Tpw-245" value="state" style="shape=partialRectangle;connectable=0;fillColor=#a0522d;top=0;left=0;bottom=0;right=0;align=left;spacingLeft=6;overflow=hidden;whiteSpace=wrap;html=1;fontSize=15;fontColor=#ffffff;strokeColor=#6D1F00;opacity=30;" parent="vyj9jpibA56fX9_31Tpw-243" vertex="1">
          <mxGeometry x="30" width="150" height="30" as="geometry">
            <mxRectangle width="150" height="30" as="alternateBounds" />
          </mxGeometry>
        </mxCell>
        <mxCell id="vyj9jpibA56fX9_31Tpw-246" value="" style="shape=tableRow;horizontal=0;startSize=0;swimlaneHead=0;swimlaneBody=0;fillColor=#a0522d;collapsible=0;dropTarget=0;points=[[0,0.5],[1,0.5]];portConstraint=eastwest;top=0;left=0;right=0;bottom=0;fontSize=15;fontColor=#ffffff;strokeColor=#6D1F00;opacity=30;" parent="vyj9jpibA56fX9_31Tpw-196" vertex="1">
          <mxGeometry y="240" width="180" height="30" as="geometry" />
        </mxCell>
        <mxCell id="vyj9jpibA56fX9_31Tpw-247" value="" style="shape=partialRectangle;connectable=0;fillColor=#a0522d;top=0;left=0;bottom=0;right=0;editable=1;overflow=hidden;whiteSpace=wrap;html=1;fontSize=15;fontColor=#ffffff;strokeColor=#6D1F00;opacity=30;" parent="vyj9jpibA56fX9_31Tpw-246" vertex="1">
          <mxGeometry width="30" height="30" as="geometry">
            <mxRectangle width="30" height="30" as="alternateBounds" />
          </mxGeometry>
        </mxCell>
        <mxCell id="vyj9jpibA56fX9_31Tpw-248" value="street_adress" style="shape=partialRectangle;connectable=0;fillColor=#a0522d;top=0;left=0;bottom=0;right=0;align=left;spacingLeft=6;overflow=hidden;whiteSpace=wrap;html=1;fontSize=15;fontColor=#ffffff;strokeColor=#6D1F00;opacity=30;" parent="vyj9jpibA56fX9_31Tpw-246" vertex="1">
          <mxGeometry x="30" width="150" height="30" as="geometry">
            <mxRectangle width="150" height="30" as="alternateBounds" />
          </mxGeometry>
        </mxCell>
        <mxCell id="vyj9jpibA56fX9_31Tpw-249" value="" style="shape=tableRow;horizontal=0;startSize=0;swimlaneHead=0;swimlaneBody=0;fillColor=#a0522d;collapsible=0;dropTarget=0;points=[[0,0.5],[1,0.5]];portConstraint=eastwest;top=0;left=0;right=0;bottom=0;fontSize=15;fontColor=#ffffff;strokeColor=#6D1F00;opacity=30;" parent="vyj9jpibA56fX9_31Tpw-196" vertex="1">
          <mxGeometry y="270" width="180" height="30" as="geometry" />
        </mxCell>
        <mxCell id="vyj9jpibA56fX9_31Tpw-250" value="" style="shape=partialRectangle;connectable=0;fillColor=#a0522d;top=0;left=0;bottom=0;right=0;editable=1;overflow=hidden;whiteSpace=wrap;html=1;fontSize=15;fontColor=#ffffff;strokeColor=#6D1F00;opacity=30;" parent="vyj9jpibA56fX9_31Tpw-249" vertex="1">
          <mxGeometry width="30" height="30" as="geometry">
            <mxRectangle width="30" height="30" as="alternateBounds" />
          </mxGeometry>
        </mxCell>
        <mxCell id="vyj9jpibA56fX9_31Tpw-251" value="postal_code" style="shape=partialRectangle;connectable=0;fillColor=#a0522d;top=0;left=0;bottom=0;right=0;align=left;spacingLeft=6;overflow=hidden;whiteSpace=wrap;html=1;fontSize=15;fontColor=#ffffff;strokeColor=#6D1F00;opacity=30;" parent="vyj9jpibA56fX9_31Tpw-249" vertex="1">
          <mxGeometry x="30" width="150" height="30" as="geometry">
            <mxRectangle width="150" height="30" as="alternateBounds" />
          </mxGeometry>
        </mxCell>
        <mxCell id="vyj9jpibA56fX9_31Tpw-252" value="" style="shape=tableRow;horizontal=0;startSize=0;swimlaneHead=0;swimlaneBody=0;fillColor=#a0522d;collapsible=0;dropTarget=0;points=[[0,0.5],[1,0.5]];portConstraint=eastwest;top=0;left=0;right=0;bottom=0;fontSize=15;fontColor=#ffffff;strokeColor=#6D1F00;opacity=30;" parent="vyj9jpibA56fX9_31Tpw-196" vertex="1">
          <mxGeometry y="300" width="180" height="30" as="geometry" />
        </mxCell>
        <mxCell id="vyj9jpibA56fX9_31Tpw-253" value="" style="shape=partialRectangle;connectable=0;fillColor=#a0522d;top=0;left=0;bottom=0;right=0;editable=1;overflow=hidden;whiteSpace=wrap;html=1;fontSize=15;fontColor=#ffffff;strokeColor=#6D1F00;opacity=30;" parent="vyj9jpibA56fX9_31Tpw-252" vertex="1">
          <mxGeometry width="30" height="30" as="geometry">
            <mxRectangle width="30" height="30" as="alternateBounds" />
          </mxGeometry>
        </mxCell>
        <mxCell id="vyj9jpibA56fX9_31Tpw-254" value="city" style="shape=partialRectangle;connectable=0;fillColor=#a0522d;top=0;left=0;bottom=0;right=0;align=left;spacingLeft=6;overflow=hidden;whiteSpace=wrap;html=1;fontSize=15;fontColor=#ffffff;strokeColor=#6D1F00;opacity=30;" parent="vyj9jpibA56fX9_31Tpw-252" vertex="1">
          <mxGeometry x="30" width="150" height="30" as="geometry">
            <mxRectangle width="150" height="30" as="alternateBounds" />
          </mxGeometry>
        </mxCell>
        <mxCell id="vyj9jpibA56fX9_31Tpw-255" value="" style="shape=tableRow;horizontal=0;startSize=0;swimlaneHead=0;swimlaneBody=0;fillColor=#a0522d;collapsible=0;dropTarget=0;points=[[0,0.5],[1,0.5]];portConstraint=eastwest;top=0;left=0;right=0;bottom=0;fontSize=15;fontColor=#ffffff;strokeColor=#6D1F00;opacity=30;" parent="vyj9jpibA56fX9_31Tpw-196" vertex="1">
          <mxGeometry y="330" width="180" height="30" as="geometry" />
        </mxCell>
        <mxCell id="vyj9jpibA56fX9_31Tpw-256" value="" style="shape=partialRectangle;connectable=0;fillColor=#a0522d;top=0;left=0;bottom=0;right=0;editable=1;overflow=hidden;whiteSpace=wrap;html=1;fontSize=15;fontColor=#ffffff;strokeColor=#6D1F00;opacity=30;" parent="vyj9jpibA56fX9_31Tpw-255" vertex="1">
          <mxGeometry width="30" height="30" as="geometry">
            <mxRectangle width="30" height="30" as="alternateBounds" />
          </mxGeometry>
        </mxCell>
        <mxCell id="vyj9jpibA56fX9_31Tpw-257" value="country" style="shape=partialRectangle;connectable=0;fillColor=#a0522d;top=0;left=0;bottom=0;right=0;align=left;spacingLeft=6;overflow=hidden;whiteSpace=wrap;html=1;fontSize=15;fontColor=#ffffff;strokeColor=#6D1F00;opacity=30;" parent="vyj9jpibA56fX9_31Tpw-255" vertex="1">
          <mxGeometry x="30" width="150" height="30" as="geometry">
            <mxRectangle width="150" height="30" as="alternateBounds" />
          </mxGeometry>
        </mxCell>
        <mxCell id="vyj9jpibA56fX9_31Tpw-258" value="" style="shape=tableRow;horizontal=0;startSize=0;swimlaneHead=0;swimlaneBody=0;fillColor=#a0522d;collapsible=0;dropTarget=0;points=[[0,0.5],[1,0.5]];portConstraint=eastwest;top=0;left=0;right=0;bottom=0;fontSize=15;fontColor=#ffffff;strokeColor=#6D1F00;opacity=30;" parent="vyj9jpibA56fX9_31Tpw-196" vertex="1">
          <mxGeometry y="360" width="180" height="30" as="geometry" />
        </mxCell>
        <mxCell id="vyj9jpibA56fX9_31Tpw-259" value="" style="shape=partialRectangle;connectable=0;fillColor=#a0522d;top=0;left=0;bottom=0;right=0;editable=1;overflow=hidden;whiteSpace=wrap;html=1;fontSize=15;fontColor=#ffffff;strokeColor=#6D1F00;opacity=30;" parent="vyj9jpibA56fX9_31Tpw-258" vertex="1">
          <mxGeometry width="30" height="30" as="geometry">
            <mxRectangle width="30" height="30" as="alternateBounds" />
          </mxGeometry>
        </mxCell>
        <mxCell id="vyj9jpibA56fX9_31Tpw-260" value="latitude" style="shape=partialRectangle;connectable=0;fillColor=#a0522d;top=0;left=0;bottom=0;right=0;align=left;spacingLeft=6;overflow=hidden;whiteSpace=wrap;html=1;fontSize=15;fontColor=#ffffff;strokeColor=#6D1F00;opacity=30;" parent="vyj9jpibA56fX9_31Tpw-258" vertex="1">
          <mxGeometry x="30" width="150" height="30" as="geometry">
            <mxRectangle width="150" height="30" as="alternateBounds" />
          </mxGeometry>
        </mxCell>
        <mxCell id="vyj9jpibA56fX9_31Tpw-261" value="" style="shape=tableRow;horizontal=0;startSize=0;swimlaneHead=0;swimlaneBody=0;fillColor=#a0522d;collapsible=0;dropTarget=0;points=[[0,0.5],[1,0.5]];portConstraint=eastwest;top=0;left=0;right=0;bottom=0;fontSize=15;fontColor=#ffffff;strokeColor=#6D1F00;opacity=30;" parent="vyj9jpibA56fX9_31Tpw-196" vertex="1">
          <mxGeometry y="390" width="180" height="30" as="geometry" />
        </mxCell>
        <mxCell id="vyj9jpibA56fX9_31Tpw-262" value="" style="shape=partialRectangle;connectable=0;fillColor=#a0522d;top=0;left=0;bottom=0;right=0;editable=1;overflow=hidden;whiteSpace=wrap;html=1;fontSize=15;fontColor=#ffffff;strokeColor=#6D1F00;opacity=30;" parent="vyj9jpibA56fX9_31Tpw-261" vertex="1">
          <mxGeometry width="30" height="30" as="geometry">
            <mxRectangle width="30" height="30" as="alternateBounds" />
          </mxGeometry>
        </mxCell>
        <mxCell id="vyj9jpibA56fX9_31Tpw-263" value="longitude" style="shape=partialRectangle;connectable=0;fillColor=#a0522d;top=0;left=0;bottom=0;right=0;align=left;spacingLeft=6;overflow=hidden;whiteSpace=wrap;html=1;fontSize=15;fontColor=#ffffff;strokeColor=#6D1F00;opacity=30;" parent="vyj9jpibA56fX9_31Tpw-261" vertex="1">
          <mxGeometry x="30" width="150" height="30" as="geometry">
            <mxRectangle width="150" height="30" as="alternateBounds" />
          </mxGeometry>
        </mxCell>
        <mxCell id="vyj9jpibA56fX9_31Tpw-264" value="" style="shape=tableRow;horizontal=0;startSize=0;swimlaneHead=0;swimlaneBody=0;fillColor=#a0522d;collapsible=0;dropTarget=0;points=[[0,0.5],[1,0.5]];portConstraint=eastwest;top=0;left=0;right=0;bottom=0;fontSize=15;fontColor=#ffffff;strokeColor=#6D1F00;opacity=30;" parent="vyj9jpibA56fX9_31Tpw-196" vertex="1">
          <mxGeometry y="420" width="180" height="30" as="geometry" />
        </mxCell>
        <mxCell id="vyj9jpibA56fX9_31Tpw-265" value="" style="shape=partialRectangle;connectable=0;fillColor=#a0522d;top=0;left=0;bottom=0;right=0;editable=1;overflow=hidden;whiteSpace=wrap;html=1;fontSize=15;fontColor=#ffffff;strokeColor=#6D1F00;opacity=30;" parent="vyj9jpibA56fX9_31Tpw-264" vertex="1">
          <mxGeometry width="30" height="30" as="geometry">
            <mxRectangle width="30" height="30" as="alternateBounds" />
          </mxGeometry>
        </mxCell>
        <mxCell id="vyj9jpibA56fX9_31Tpw-266" value="traffic_source" style="shape=partialRectangle;connectable=0;fillColor=#a0522d;top=0;left=0;bottom=0;right=0;align=left;spacingLeft=6;overflow=hidden;whiteSpace=wrap;html=1;fontSize=15;fontColor=#ffffff;strokeColor=#6D1F00;opacity=30;" parent="vyj9jpibA56fX9_31Tpw-264" vertex="1">
          <mxGeometry x="30" width="150" height="30" as="geometry">
            <mxRectangle width="150" height="30" as="alternateBounds" />
          </mxGeometry>
        </mxCell>
        <mxCell id="vyj9jpibA56fX9_31Tpw-209" value="&lt;font style=&quot;font-size: 20px;&quot;&gt;products&lt;/font&gt;" style="shape=table;startSize=30;container=1;collapsible=1;childLayout=tableLayout;fixedRows=1;rowLines=0;fontStyle=1;align=center;resizeLast=1;html=1;fillColor=#a0522d;fontColor=#ffffff;strokeColor=#6D1F00;strokeWidth=2;" parent="1" vertex="1">
          <mxGeometry x="620" y="-890" width="200" height="300" as="geometry" />
        </mxCell>
        <mxCell id="vyj9jpibA56fX9_31Tpw-210" value="" style="shape=tableRow;horizontal=0;startSize=0;swimlaneHead=0;swimlaneBody=0;fillColor=#a0522d;collapsible=0;dropTarget=0;points=[[0,0.5],[1,0.5]];portConstraint=eastwest;top=0;left=0;right=0;bottom=1;fontSize=15;fontColor=#ffffff;strokeColor=#6D1F00;opacity=30;" parent="vyj9jpibA56fX9_31Tpw-209" vertex="1">
          <mxGeometry y="30" width="200" height="30" as="geometry" />
        </mxCell>
        <mxCell id="vyj9jpibA56fX9_31Tpw-211" value="PK" style="shape=partialRectangle;connectable=0;fillColor=#a0522d;top=0;left=0;bottom=0;right=0;fontStyle=1;overflow=hidden;whiteSpace=wrap;html=1;fontSize=15;fontColor=#ffffff;strokeColor=#6D1F00;opacity=30;" parent="vyj9jpibA56fX9_31Tpw-210" vertex="1">
          <mxGeometry width="30" height="30" as="geometry">
            <mxRectangle width="30" height="30" as="alternateBounds" />
          </mxGeometry>
        </mxCell>
        <mxCell id="vyj9jpibA56fX9_31Tpw-212" value="id" style="shape=partialRectangle;connectable=0;fillColor=#a0522d;top=0;left=0;bottom=0;right=0;align=left;spacingLeft=6;fontStyle=5;overflow=hidden;whiteSpace=wrap;html=1;fontSize=15;strokeColor=#6D1F00;fontColor=#ffffff;opacity=30;" parent="vyj9jpibA56fX9_31Tpw-210" vertex="1">
          <mxGeometry x="30" width="170" height="30" as="geometry">
            <mxRectangle width="170" height="30" as="alternateBounds" />
          </mxGeometry>
        </mxCell>
        <mxCell id="vyj9jpibA56fX9_31Tpw-213" value="" style="shape=tableRow;horizontal=0;startSize=0;swimlaneHead=0;swimlaneBody=0;fillColor=#a0522d;collapsible=0;dropTarget=0;points=[[0,0.5],[1,0.5]];portConstraint=eastwest;top=0;left=0;right=0;bottom=0;fontSize=15;fontColor=#ffffff;strokeColor=#6D1F00;opacity=30;" parent="vyj9jpibA56fX9_31Tpw-209" vertex="1">
          <mxGeometry y="60" width="200" height="30" as="geometry" />
        </mxCell>
        <mxCell id="vyj9jpibA56fX9_31Tpw-214" value="" style="shape=partialRectangle;connectable=0;fillColor=#a0522d;top=0;left=0;bottom=0;right=0;editable=1;overflow=hidden;whiteSpace=wrap;html=1;fontSize=15;fontColor=#ffffff;strokeColor=#6D1F00;opacity=30;" parent="vyj9jpibA56fX9_31Tpw-213" vertex="1">
          <mxGeometry width="30" height="30" as="geometry">
            <mxRectangle width="30" height="30" as="alternateBounds" />
          </mxGeometry>
        </mxCell>
        <mxCell id="vyj9jpibA56fX9_31Tpw-215" value="cost" style="shape=partialRectangle;connectable=0;fillColor=#a0522d;top=0;left=0;bottom=0;right=0;align=left;spacingLeft=6;overflow=hidden;whiteSpace=wrap;html=1;fontSize=15;fontColor=#ffffff;strokeColor=#6D1F00;opacity=30;" parent="vyj9jpibA56fX9_31Tpw-213" vertex="1">
          <mxGeometry x="30" width="170" height="30" as="geometry">
            <mxRectangle width="170" height="30" as="alternateBounds" />
          </mxGeometry>
        </mxCell>
        <mxCell id="vyj9jpibA56fX9_31Tpw-216" value="" style="shape=tableRow;horizontal=0;startSize=0;swimlaneHead=0;swimlaneBody=0;fillColor=#a0522d;collapsible=0;dropTarget=0;points=[[0,0.5],[1,0.5]];portConstraint=eastwest;top=0;left=0;right=0;bottom=0;fontSize=15;fontColor=#ffffff;strokeColor=#6D1F00;opacity=30;" parent="vyj9jpibA56fX9_31Tpw-209" vertex="1">
          <mxGeometry y="90" width="200" height="30" as="geometry" />
        </mxCell>
        <mxCell id="vyj9jpibA56fX9_31Tpw-217" value="" style="shape=partialRectangle;connectable=0;fillColor=#a0522d;top=0;left=0;bottom=0;right=0;editable=1;overflow=hidden;whiteSpace=wrap;html=1;fontSize=15;fontColor=#ffffff;strokeColor=#6D1F00;opacity=30;" parent="vyj9jpibA56fX9_31Tpw-216" vertex="1">
          <mxGeometry width="30" height="30" as="geometry">
            <mxRectangle width="30" height="30" as="alternateBounds" />
          </mxGeometry>
        </mxCell>
        <mxCell id="vyj9jpibA56fX9_31Tpw-218" value="category" style="shape=partialRectangle;connectable=0;fillColor=#a0522d;top=0;left=0;bottom=0;right=0;align=left;spacingLeft=6;overflow=hidden;whiteSpace=wrap;html=1;fontSize=15;fontColor=#ffffff;strokeColor=#6D1F00;opacity=30;" parent="vyj9jpibA56fX9_31Tpw-216" vertex="1">
          <mxGeometry x="30" width="170" height="30" as="geometry">
            <mxRectangle width="170" height="30" as="alternateBounds" />
          </mxGeometry>
        </mxCell>
        <mxCell id="vyj9jpibA56fX9_31Tpw-222" value="" style="shape=tableRow;horizontal=0;startSize=0;swimlaneHead=0;swimlaneBody=0;fillColor=#a0522d;collapsible=0;dropTarget=0;points=[[0,0.5],[1,0.5]];portConstraint=eastwest;top=0;left=0;right=0;bottom=0;fontSize=15;fontColor=#ffffff;strokeColor=#6D1F00;opacity=30;" parent="vyj9jpibA56fX9_31Tpw-209" vertex="1">
          <mxGeometry y="120" width="200" height="30" as="geometry" />
        </mxCell>
        <mxCell id="vyj9jpibA56fX9_31Tpw-223" value="" style="shape=partialRectangle;connectable=0;fillColor=#a0522d;top=0;left=0;bottom=0;right=0;editable=1;overflow=hidden;whiteSpace=wrap;html=1;fontSize=15;fontColor=#ffffff;strokeColor=#6D1F00;opacity=30;" parent="vyj9jpibA56fX9_31Tpw-222" vertex="1">
          <mxGeometry width="30" height="30" as="geometry">
            <mxRectangle width="30" height="30" as="alternateBounds" />
          </mxGeometry>
        </mxCell>
        <mxCell id="vyj9jpibA56fX9_31Tpw-224" value="name" style="shape=partialRectangle;connectable=0;fillColor=#a0522d;top=0;left=0;bottom=0;right=0;align=left;spacingLeft=6;overflow=hidden;whiteSpace=wrap;html=1;fontSize=15;fontColor=#ffffff;strokeColor=#6D1F00;opacity=30;" parent="vyj9jpibA56fX9_31Tpw-222" vertex="1">
          <mxGeometry x="30" width="170" height="30" as="geometry">
            <mxRectangle width="170" height="30" as="alternateBounds" />
          </mxGeometry>
        </mxCell>
        <mxCell id="vyj9jpibA56fX9_31Tpw-219" value="" style="shape=tableRow;horizontal=0;startSize=0;swimlaneHead=0;swimlaneBody=0;fillColor=#a0522d;collapsible=0;dropTarget=0;points=[[0,0.5],[1,0.5]];portConstraint=eastwest;top=0;left=0;right=0;bottom=0;fontSize=15;fontColor=#ffffff;strokeColor=#6D1F00;opacity=30;" parent="vyj9jpibA56fX9_31Tpw-209" vertex="1">
          <mxGeometry y="150" width="200" height="30" as="geometry" />
        </mxCell>
        <mxCell id="vyj9jpibA56fX9_31Tpw-220" value="" style="shape=partialRectangle;connectable=0;fillColor=#a0522d;top=0;left=0;bottom=0;right=0;editable=1;overflow=hidden;whiteSpace=wrap;html=1;fontSize=15;fontColor=#ffffff;strokeColor=#6D1F00;opacity=30;" parent="vyj9jpibA56fX9_31Tpw-219" vertex="1">
          <mxGeometry width="30" height="30" as="geometry">
            <mxRectangle width="30" height="30" as="alternateBounds" />
          </mxGeometry>
        </mxCell>
        <mxCell id="vyj9jpibA56fX9_31Tpw-221" value="brand" style="shape=partialRectangle;connectable=0;fillColor=#a0522d;top=0;left=0;bottom=0;right=0;align=left;spacingLeft=6;overflow=hidden;whiteSpace=wrap;html=1;fontSize=15;fontColor=#ffffff;strokeColor=#6D1F00;opacity=30;" parent="vyj9jpibA56fX9_31Tpw-219" vertex="1">
          <mxGeometry x="30" width="170" height="30" as="geometry">
            <mxRectangle width="170" height="30" as="alternateBounds" />
          </mxGeometry>
        </mxCell>
        <mxCell id="vyj9jpibA56fX9_31Tpw-225" value="" style="shape=tableRow;horizontal=0;startSize=0;swimlaneHead=0;swimlaneBody=0;fillColor=#a0522d;collapsible=0;dropTarget=0;points=[[0,0.5],[1,0.5]];portConstraint=eastwest;top=0;left=0;right=0;bottom=0;fontSize=15;fontColor=#ffffff;strokeColor=#6D1F00;opacity=30;" parent="vyj9jpibA56fX9_31Tpw-209" vertex="1">
          <mxGeometry y="180" width="200" height="30" as="geometry" />
        </mxCell>
        <mxCell id="vyj9jpibA56fX9_31Tpw-226" value="" style="shape=partialRectangle;connectable=0;fillColor=#a0522d;top=0;left=0;bottom=0;right=0;editable=1;overflow=hidden;whiteSpace=wrap;html=1;fontSize=15;fontColor=#ffffff;strokeColor=#6D1F00;opacity=30;" parent="vyj9jpibA56fX9_31Tpw-225" vertex="1">
          <mxGeometry width="30" height="30" as="geometry">
            <mxRectangle width="30" height="30" as="alternateBounds" />
          </mxGeometry>
        </mxCell>
        <mxCell id="vyj9jpibA56fX9_31Tpw-227" value="retail_price" style="shape=partialRectangle;connectable=0;fillColor=#a0522d;top=0;left=0;bottom=0;right=0;align=left;spacingLeft=6;overflow=hidden;whiteSpace=wrap;html=1;fontSize=15;fontColor=#ffffff;strokeColor=#6D1F00;opacity=30;" parent="vyj9jpibA56fX9_31Tpw-225" vertex="1">
          <mxGeometry x="30" width="170" height="30" as="geometry">
            <mxRectangle width="170" height="30" as="alternateBounds" />
          </mxGeometry>
        </mxCell>
        <mxCell id="vyj9jpibA56fX9_31Tpw-228" value="" style="shape=tableRow;horizontal=0;startSize=0;swimlaneHead=0;swimlaneBody=0;fillColor=#a0522d;collapsible=0;dropTarget=0;points=[[0,0.5],[1,0.5]];portConstraint=eastwest;top=0;left=0;right=0;bottom=0;fontSize=15;fontColor=#ffffff;strokeColor=#6D1F00;opacity=30;" parent="vyj9jpibA56fX9_31Tpw-209" vertex="1">
          <mxGeometry y="210" width="200" height="30" as="geometry" />
        </mxCell>
        <mxCell id="vyj9jpibA56fX9_31Tpw-229" value="" style="shape=partialRectangle;connectable=0;fillColor=#a0522d;top=0;left=0;bottom=0;right=0;editable=1;overflow=hidden;whiteSpace=wrap;html=1;fontSize=15;fontColor=#ffffff;strokeColor=#6D1F00;opacity=30;" parent="vyj9jpibA56fX9_31Tpw-228" vertex="1">
          <mxGeometry width="30" height="30" as="geometry">
            <mxRectangle width="30" height="30" as="alternateBounds" />
          </mxGeometry>
        </mxCell>
        <mxCell id="vyj9jpibA56fX9_31Tpw-230" value="department" style="shape=partialRectangle;connectable=0;fillColor=#a0522d;top=0;left=0;bottom=0;right=0;align=left;spacingLeft=6;overflow=hidden;whiteSpace=wrap;html=1;fontSize=15;fontColor=#ffffff;strokeColor=#6D1F00;opacity=30;" parent="vyj9jpibA56fX9_31Tpw-228" vertex="1">
          <mxGeometry x="30" width="170" height="30" as="geometry">
            <mxRectangle width="170" height="30" as="alternateBounds" />
          </mxGeometry>
        </mxCell>
        <mxCell id="vyj9jpibA56fX9_31Tpw-231" value="" style="shape=tableRow;horizontal=0;startSize=0;swimlaneHead=0;swimlaneBody=0;fillColor=#a0522d;collapsible=0;dropTarget=0;points=[[0,0.5],[1,0.5]];portConstraint=eastwest;top=0;left=0;right=0;bottom=0;fontSize=15;fontColor=#ffffff;strokeColor=#6D1F00;opacity=30;" parent="vyj9jpibA56fX9_31Tpw-209" vertex="1">
          <mxGeometry y="240" width="200" height="30" as="geometry" />
        </mxCell>
        <mxCell id="vyj9jpibA56fX9_31Tpw-232" value="" style="shape=partialRectangle;connectable=0;fillColor=#a0522d;top=0;left=0;bottom=0;right=0;editable=1;overflow=hidden;whiteSpace=wrap;html=1;fontSize=15;fontColor=#ffffff;strokeColor=#6D1F00;opacity=30;" parent="vyj9jpibA56fX9_31Tpw-231" vertex="1">
          <mxGeometry width="30" height="30" as="geometry">
            <mxRectangle width="30" height="30" as="alternateBounds" />
          </mxGeometry>
        </mxCell>
        <mxCell id="vyj9jpibA56fX9_31Tpw-233" value="sku" style="shape=partialRectangle;connectable=0;fillColor=#a0522d;top=0;left=0;bottom=0;right=0;align=left;spacingLeft=6;overflow=hidden;whiteSpace=wrap;html=1;fontSize=15;fontColor=#ffffff;strokeColor=#6D1F00;opacity=30;" parent="vyj9jpibA56fX9_31Tpw-231" vertex="1">
          <mxGeometry x="30" width="170" height="30" as="geometry">
            <mxRectangle width="170" height="30" as="alternateBounds" />
          </mxGeometry>
        </mxCell>
        <mxCell id="vyj9jpibA56fX9_31Tpw-234" value="" style="shape=tableRow;horizontal=0;startSize=0;swimlaneHead=0;swimlaneBody=0;fillColor=#a0522d;collapsible=0;dropTarget=0;points=[[0,0.5],[1,0.5]];portConstraint=eastwest;top=0;left=0;right=0;bottom=0;fontSize=15;fontColor=#ffffff;strokeColor=#6D1F00;opacity=30;" parent="vyj9jpibA56fX9_31Tpw-209" vertex="1">
          <mxGeometry y="270" width="200" height="30" as="geometry" />
        </mxCell>
        <mxCell id="vyj9jpibA56fX9_31Tpw-235" value="" style="shape=partialRectangle;connectable=0;fillColor=#a0522d;top=0;left=0;bottom=0;right=0;editable=1;overflow=hidden;whiteSpace=wrap;html=1;fontSize=15;fontColor=#ffffff;strokeColor=#6D1F00;opacity=30;" parent="vyj9jpibA56fX9_31Tpw-234" vertex="1">
          <mxGeometry width="30" height="30" as="geometry">
            <mxRectangle width="30" height="30" as="alternateBounds" />
          </mxGeometry>
        </mxCell>
        <mxCell id="vyj9jpibA56fX9_31Tpw-236" value="&lt;span style=&quot;font-family: &amp;quot;Google Sans&amp;quot;, Roboto, Arial, sans-serif; letter-spacing: 0.15px; text-align: center; text-wrap-mode: nowrap; background-color: rgba(60, 64, 67, 0.04);&quot;&gt;&lt;font style=&quot;color: rgb(222, 229, 250);&quot;&gt;distribution_center_id&lt;/font&gt;&lt;/span&gt;" style="shape=partialRectangle;connectable=0;fillColor=#a0522d;top=0;left=0;bottom=0;right=0;align=left;spacingLeft=6;overflow=hidden;whiteSpace=wrap;html=1;fontSize=15;fontColor=#ffffff;strokeColor=#6D1F00;opacity=30;" parent="vyj9jpibA56fX9_31Tpw-234" vertex="1">
          <mxGeometry x="30" width="170" height="30" as="geometry">
            <mxRectangle width="170" height="30" as="alternateBounds" />
          </mxGeometry>
        </mxCell>
        <mxCell id="vyj9jpibA56fX9_31Tpw-267" style="edgeStyle=orthogonalEdgeStyle;rounded=0;orthogonalLoop=1;jettySize=auto;html=1;entryX=0;entryY=0.5;entryDx=0;entryDy=0;fontSize=15;" parent="1" source="vyj9jpibA56fX9_31Tpw-197" target="vyj9jpibA56fX9_31Tpw-178" edge="1">
          <mxGeometry relative="1" as="geometry" />
        </mxCell>
        <mxCell id="vyj9jpibA56fX9_31Tpw-268" style="edgeStyle=orthogonalEdgeStyle;rounded=0;orthogonalLoop=1;jettySize=auto;html=1;entryX=1;entryY=0.5;entryDx=0;entryDy=0;fontSize=15;" parent="1" source="vyj9jpibA56fX9_31Tpw-210" target="vyj9jpibA56fX9_31Tpw-152" edge="1">
          <mxGeometry relative="1" as="geometry" />
        </mxCell>
      </root>
    </mxGraphModel>
  </diagram>
</mxfile>
